Coordinates
version=1
nRows=27
nColumns=12
inDegrees=yes

Units are S.I. units (second, meters, Newtons, ...)
Angles are in degrees

endheader
time	SC_y	SC_z	SC_x	AC_y	AC_z	AC_x	GH_y	GH_z	GH_yy	EL_x	PS_y
       0.0              -56.86          8.046          70.15          41.69          5.186         -17.69          50.75          45.29         -69.97           96.0          109.3
  0.006317              -56.85          8.051          70.14          41.69          5.186         -17.68          50.75          45.29         -69.94          95.99          109.3
   0.01263              -56.85          8.055          70.13           41.7          5.186         -17.68          50.75          45.28          -69.9          95.98          109.3
   0.01895              -56.85           8.06          70.12           41.7          5.186         -17.68          50.75          45.28         -69.86          95.97          109.3
   0.02527              -56.84          8.066          70.11           41.7          5.186         -17.68          50.76          45.28         -69.82          95.95          109.3
   0.03159              -56.84          8.071           70.1           41.7          5.186         -17.68          50.76          45.27         -69.78          95.94          109.3
    0.0379              -56.84          8.078          70.09           41.7          5.186         -17.67          50.76          45.27         -69.73          95.92          109.2
   0.04422              -56.83          8.084          70.07          41.71          5.186         -17.67          50.76          45.27         -69.68           95.9          109.2
   0.05054              -56.83          8.091          70.06          41.71          5.186         -17.67          50.76          45.26         -69.63          95.89          109.2
   0.05686              -56.83          8.098          70.04          41.71          5.186         -17.67          50.77          45.26         -69.58          95.87          109.2
   0.06317              -56.82          8.107          70.03          41.72          5.186         -17.66          50.77          45.26         -69.51          95.84          109.2
   0.06949              -56.82          8.115          70.01          41.72          5.186         -17.66          50.77          45.25         -69.45          95.82          109.2
   0.07581              -56.81          8.124          69.99          41.72          5.186         -17.66          50.77          45.25         -69.38           95.8          109.2
   0.08212              -56.81          8.135          69.97          41.73          5.186         -17.65          50.78          45.24          -69.3          95.77          109.2
   0.08844               -56.8          8.145          69.95          41.73          5.186         -17.65          50.78          45.24         -69.22          95.74          109.1
   0.09476              -56.79          8.157          69.93          41.74          5.185         -17.64          50.78          45.23         -69.13          95.71          109.1
    0.1011              -56.79           8.17           69.9          41.74          5.185         -17.64          50.79          45.23         -69.03          95.68          109.1
    0.1074              -56.78          8.184          69.87          41.75          5.185         -17.63          50.79          45.22         -68.93          95.64          109.1
    0.1137              -56.77          8.199          69.84          41.75          5.185         -17.63           50.8          45.21         -68.81           95.6          109.0
      0.12              -56.76          8.216          69.81          41.76          5.185         -17.62           50.8           45.2         -68.68          95.56          109.0
    0.1263              -56.75          8.234          69.77          41.77          5.185         -17.61          50.81          45.19         -68.55          95.51          109.0
    0.1327              -56.74          8.255          69.73          41.78          5.185         -17.61          50.81          45.18         -68.39          95.45          109.0
     0.139              -56.73          8.277          69.69          41.78          5.184          -17.6          50.82          45.17         -68.22           95.4          108.9
    0.1453              -56.71          8.302          69.64          41.79          5.184         -17.59          50.83          45.16         -68.04          95.33          108.9
    0.1516               -56.7          8.329          69.58          41.81          5.184         -17.58          50.84          45.15         -67.83          95.26          108.8
    0.1579              -56.68           8.36          69.52          41.82          5.184         -17.56          50.85          45.13          -67.6          95.18          108.8
    0.1642              -56.66          8.394          69.45          41.83          5.184         -17.55          50.86          45.11         -67.34          95.09          108.7
